<svg width="47" height="43" viewBox="0 0 47 43" fill="none" xmlns="http://www.w3.org/2000/svg">
<path d="M45.4381 25.7828C46.1411 26.7154 46.4234 27.8515 46.2158 28.9384C46.0081 30.0252 45.327 30.9772 44.3297 31.585C43.3325 32.1928 42.0968 32.4091 40.8972 32.1799L4.62646 25.2509C3.42405 25.0212 2.35413 24.3645 1.65117 23.4319C0.948207 22.4993 0.669715 21.3639 0.87734 20.2771C1.08496 19.1903 1.76236 18.2375 2.75959 17.6297C3.75682 17.0219 4.99349 16.8058 6.1959 17.0355L42.4666 23.9645C43.6662 24.1937 44.7352 24.8503 45.4381 25.7828ZM42.8758 35.8133C43.1101 36.1241 43.2037 36.5057 43.135 36.8651L42.8735 38.2343C42.6102 39.6121 41.6962 40.9632 40.3666 41.7736C39.0369 42.584 37.3028 42.847 35.782 42.5565L5.55643 36.7823C3.95353 36.4761 2.52533 35.6089 1.58805 34.3655C0.649828 33.1218 0.294394 31.5283 0.557603 30.1505L0.819176 28.7812C0.887839 28.4218 1.1145 28.1014 1.44691 27.8988C1.77932 27.6962 2.19154 27.6242 2.59203 27.7007L41.8853 35.2071C42.282 35.2829 42.6415 35.5024 42.8758 35.8133ZM5.48583 13.7776C5.10053 13.5088 4.78283 13.1732 4.55756 12.7842C4.33229 12.3952 4.20561 11.9719 4.18585 11.5423C4.16772 11.1042 4.25797 10.678 4.44884 10.2887C7.94298 3.26762 17.6505 -0.64522 27.9933 1.33063C38.3361 3.30648 45.9158 10.5218 46.5767 18.3366C46.6116 18.769 46.5393 19.1987 46.3553 19.5982C46.1824 19.9909 45.9104 20.3382 45.5539 20.616C45.1217 20.8793 44.7877 21.0905 44.3267 21.1976C43.8768 21.2979 43.3959 21.3036 42.9237 21.2134L6.78234 14.3091C6.31573 14.22 5.87183 14.0376 5.48583 13.7776ZM37.6315 10.6848C37.2991 10.8874 37.0715 11.2076 37.0028 11.567C36.9505 11.8409 36.9848 12.1224 37.1124 12.3774C37.2399 12.6324 37.3567 12.841 37.696 13.0122C37.965 13.0902 38.2476 13.2507 38.5502 13.2552C38.8529 13.2598 39.1513 13.1838 39.3967 13.0267C39.6499 12.8799 39.839 12.6588 39.9464 12.4043C40.0537 12.1499 39.9927 11.8544 40.0118 11.6008C39.9605 11.2539 39.7883 11.0791 39.5722 10.8782C39.356 10.6772 39.0926 10.4672 38.7904 10.4095C38.3937 10.3337 37.9639 10.4822 37.6315 10.6848ZM26.0646 5.63581C25.7322 5.83841 25.505 6.15603 25.4357 6.51888C25.3841 6.78931 25.4177 7.07426 25.5453 7.32924C25.6728 7.58422 25.7896 7.79281 26.1289 7.96407C26.3979 8.04207 26.6805 8.20251 26.9832 8.2071C27.2858 8.21169 27.5842 8.13565 27.8296 7.97852C28.0828 7.83175 28.2719 7.61064 28.3789 7.35789C28.4863 7.10343 28.4256 6.80621 28.445 6.55091C28.3795 6.27852 28.2221 6.02668 28.0051 5.83C27.7883 5.63247 27.5256 5.41907 27.2233 5.36133C26.8266 5.28555 26.397 5.43321 26.0646 5.63581ZM13.451 6.06548C13.1186 6.26808 12.891 6.58827 12.8223 6.9477C12.77 7.22154 12.8044 7.50307 12.9319 7.75806C13.0594 8.01304 13.1762 8.22162 13.5155 8.39288C13.7845 8.47088 14.0671 8.63132 14.3698 8.63591C14.6724 8.6405 14.9708 8.56446 15.2162 8.40733C15.4694 8.26056 15.6585 8.03945 15.7659 7.78499C15.8732 7.53053 15.8122 7.23503 15.8313 6.98144C15.7801 6.63459 15.6079 6.45977 15.3917 6.25882C15.1755 6.05786 14.9122 5.84789 14.6099 5.79014C14.2132 5.71436 13.7834 5.86288 13.451 6.06548Z" fill="#264653"/>
</svg>
