<svg width="42" height="41" viewBox="0 0 42 41" fill="none" xmlns="http://www.w3.org/2000/svg">
<path d="M30.8996 8.87139C32.8948 8.73379 34.4207 7.29074 34.3072 5.64574C34.1938 4.00074 30.329 0.597993 30.329 0.597993C30.329 0.597993 26.9724 4.56386 27.0859 6.20886C27.1993 7.85385 28.9035 9.00905 30.8996 8.87139ZM19.3383 9.66872C21.3335 9.53112 22.8594 8.08807 22.7459 6.44307C22.6325 4.79807 18.7677 1.39532 18.7677 1.39532C18.7677 1.39532 15.4111 5.36119 15.5246 7.00619C15.638 8.65118 17.3421 9.80638 19.3383 9.66872ZM34.2838 17.0181L34.0411 12.3135C33.9957 11.6555 33.3118 11.1667 32.5137 11.2217L29.6234 11.4211C28.8286 11.4759 28.2152 12.0569 28.2604 12.7122L28.5891 17.4782L22.8084 17.8768L22.4797 13.1109C22.4344 12.4529 21.7505 11.964 20.9524 12.0191L18.0621 12.2184C17.2672 12.2732 16.6539 12.8542 16.6991 13.5095L17.0278 18.2755L11.2471 18.6742L10.9184 13.9082C10.873 13.2502 10.1892 12.7613 9.39109 12.8164L6.50076 13.0157C5.70231 13.0708 5.09258 13.6515 5.13777 14.3069L5.4663 19.0706C2.27339 19.2908 -0.167216 21.6028 0.00970904 24.1682L0.362532 29.2841C1.2803 29.6774 2.35272 29.9946 3.31105 29.9285C5.17531 29.8 7.27876 28.1786 7.9307 27.565C8.46328 27.063 9.37463 27.0001 9.97109 27.4243C10.63 28.0171 13.0117 29.2595 14.8724 29.1312C16.733 29.0029 18.8401 27.3813 19.492 26.7677C20.0246 26.2657 20.9359 26.2028 21.5324 26.627C22.1913 27.2198 24.573 28.4622 26.4337 28.3339C28.2943 28.2055 30.4014 26.584 31.0533 25.9704C31.5859 25.4683 32.4973 25.4055 33.0937 25.8297C33.7526 26.4225 36.1343 27.6649 37.995 27.5365C38.9533 27.4704 39.9724 27.0091 40.8271 26.4935L40.4745 21.3798C40.2973 18.8106 37.5535 16.7926 34.2838 17.0181ZM32.2462 28.3969C31.0605 29.298 28.9481 30.6191 26.6024 30.7809C24.2568 30.9427 21.9831 29.9248 20.6849 29.1942C19.4992 30.0953 17.3868 31.4164 15.0411 31.5782C12.6954 31.74 10.4218 30.7221 9.12355 29.9916C7.93784 30.8926 5.82549 32.2138 3.47981 32.3755C2.46187 32.4457 1.46855 32.2807 0.551593 32.0255L1.00035 38.5325C1.09144 39.8534 2.45921 40.829 4.05521 40.7189L38.7392 38.327C40.3352 38.2169 41.5559 37.0605 41.4651 35.7446L41.0164 29.2376C40.1431 29.6163 39.1819 29.9161 38.1639 29.9863C35.8109 30.0815 33.5491 29.1301 32.2462 28.3969ZM7.77696 10.466C9.77219 10.3284 11.298 8.8854 11.1846 7.2404C11.0712 5.5954 7.20639 2.19265 7.20639 2.19265C7.20639 2.19265 3.8498 6.15852 3.96325 7.80352C4.07669 9.44851 5.78173 10.6037 7.77696 10.466Z" fill="#2A9D8F"/>
</svg>
