<svg width="47" height="51" viewBox="0 0 47 51" fill="none" xmlns="http://www.w3.org/2000/svg">
<path d="M27.374 15.5974C22.5363 13.0377 16.8633 14.5516 13.5035 18.8643L18.5771 24.3732C19.1508 24.9957 19.1508 25.9997 18.5771 26.6222C18.2901 26.921 17.9101 27.0809 17.5316 27.0809C17.153 27.0809 16.7909 26.921 16.5044 26.6222L11.9614 21.6133L0.202262 47.7883C-0.0616527 48.3859 -0.0731273 49.108 0.202262 49.7434C0.707141 50.851 1.94639 51.3121 2.95615 50.7773L15.2201 44.2784L10.7129 39.372C10.1275 38.762 10.1275 37.7406 10.7129 37.131C11.2867 36.5085 12.2156 36.5085 12.7783 37.131L18.0089 42.8063L27.3721 37.8372C29.5752 36.6789 31.4571 34.7237 32.6164 32.147C35.3878 26.0057 33.0378 18.6054 27.374 15.5974ZM35.8192 12.1313C37.6092 8.06763 36.6913 3.27486 32.9644 0C28.3516 4.15832 28.1441 10.707 32.2415 15.1293L32.9758 15.9261C37.1319 20.3683 43.1813 20.1492 47 15.1393C43.9799 11.1851 39.4819 10.1891 35.8192 12.1313Z" fill="#264653"/>
</svg>
