<svg width="37" height="36" viewBox="0 0 37 36" fill="none" xmlns="http://www.w3.org/2000/svg">
<path d="M13.1949 1.90721L13.1949 1.90722L13.1994 1.90499C14.5429 1.23143 16.0495 0.929245 17.5652 1.0139C18.0512 5.7727 21.9467 9.51942 26.7952 9.95775C27.2583 14.7222 31.144 18.4774 35.9876 18.9447C36.0681 20.3891 35.7567 21.8426 35.0737 23.1423L35.0733 23.1432L32.535 27.9859L32.534 27.9878C31.722 29.545 30.4155 30.8182 28.8046 31.614L28.803 31.6147L23.8091 34.0926C23.8089 34.0927 23.8086 34.0928 23.8084 34.0929C22.195 34.8893 20.3703 35.1734 18.5774 34.8971L18.5774 34.8971L13.0399 34.0444C11.2467 33.7682 9.61148 32.9545 8.33418 31.7091L8.33361 31.7085L4.37469 27.8543L4.37449 27.8541C3.09831 26.6124 2.26216 25.014 1.98092 23.2863L1.98081 23.2856L1.10463 17.9262C1.1046 17.9259 1.10456 17.9257 1.10453 17.9255C0.823465 16.1891 1.11234 14.4222 1.93364 12.8547L1.93407 12.8539L4.46196 8.01871C4.46215 8.01836 4.46233 8.018 4.46252 8.01765C5.2841 6.45622 6.59199 5.18135 8.20634 4.37721C8.20671 4.37703 8.20707 4.37685 8.20743 4.37667L13.1949 1.90721ZM8.86602 24.0004C8.86602 25.8514 10.4672 27.3329 12.3326 27.3329C14.1961 27.3329 15.7993 25.8518 15.7993 24.0004C15.7993 22.1494 14.1981 20.668 12.3326 20.668C10.4672 20.668 8.86602 22.1494 8.86602 24.0004ZM11.3326 12.0681C11.3326 13.9191 12.9338 15.4006 14.7993 15.4006C16.6628 15.4006 18.2659 13.9195 18.2659 12.0681C18.2659 10.2171 16.6647 8.73565 14.7993 8.73565C12.9338 8.73565 11.3326 10.2171 11.3326 12.0681ZM23.6657 21.6005C23.6657 23.4514 25.2669 24.9329 27.1323 24.9329C28.9958 24.9329 30.599 23.4518 30.599 21.6005C30.599 19.7495 28.9978 18.268 27.1323 18.268C25.2669 18.268 23.6657 19.7495 23.6657 21.6005Z" fill="#264653" stroke="#2A9D8F" stroke-width="2"/>
</svg>
