<svg width="32" height="34" viewBox="0 0 32 34" fill="none" xmlns="http://www.w3.org/2000/svg">
<path d="M20.5631 0.506216C12.2276 -1.42951 2.63442 9.18816 0.985935 16.2868C-0.662552 23.3854 4.69197 30.6987 13.0982 32.6508C21.3629 34.5701 29.5199 30.4581 31.1824 23.2992C32.8309 16.2006 28.8278 2.4255 20.5631 0.506216ZM16.1572 8.09376C13.0721 10.137 9.37795 14.4102 8.53505 18.0399C8.39819 18.6292 7.72318 18.9806 7.02803 18.8192C6.33289 18.6577 5.88182 18.0448 6.01868 17.4555C7.00715 13.199 11.1332 8.5292 14.5118 6.30006C15.0566 5.93915 15.8656 6.052 16.3185 6.54982C16.7739 7.04418 16.7034 7.74064 16.1572 8.09376Z" fill="#F4A261"/>
</svg>
