<svg width="39" height="34" viewBox="0 0 39 34" fill="none" xmlns="http://www.w3.org/2000/svg">
<path d="M5.73529 7.28571C5.77329 7.28571 5.812 7.28571 5.85 7.28571C6.38051 4.51487 8.69614 2.42857 11.4706 2.42857C12.4814 2.42857 13.4851 2.73973 14.4028 3.28237C15.3562 1.33192 17.2847 0 19.5 0C21.7153 0 23.6438 1.33268 24.5972 3.28237C25.4504 2.73973 26.454 2.42857 27.5294 2.42857C30.3039 2.42857 32.555 4.51487 33.15 7.28571C33.1858 7.28571 33.2289 7.28571 33.2647 7.28571C35.7954 7.28571 37.8529 9.46384 37.8529 12.1429C37.8529 13.0308 37.6307 13.858 37.2364 14.5714H1.76074C1.37074 13.858 1.14706 13.0308 1.14706 12.1429C1.14706 9.46384 3.20101 7.28571 5.73529 7.28571ZM0 19.0795C0 17.9335 0.880368 17 1.96649 17H37.0357C38.1182 17 39 17.9335 39 19.0795C39 24.6121 35.6018 29.3098 30.8917 30.9491C30.9419 31.1464 30.9706 31.3589 30.9706 31.5714C30.9706 32.9147 29.9454 34 28.6765 34H10.3235C9.0546 34 8.02941 32.9147 8.02941 31.5714C8.02941 31.3589 8.05809 31.1464 8.10827 30.9491C3.39816 29.3098 0 24.6121 0 19.0795Z" fill="#E76F51"/>
</svg>
