<svg width="46" height="43" viewBox="0 0 46 43" fill="none" xmlns="http://www.w3.org/2000/svg">
<path d="M19.9658 15.3073C20.4614 16.0924 20.7066 16.9871 20.6993 17.9121C20.6689 18.785 20.4023 19.7856 19.889 20.6624C18.9229 22.1164 17.5361 23.2453 15.72 24.0877L19.6253 38.8951C19.8153 39.6154 19.711 40.3843 19.1927 41.0661C18.6745 41.7479 17.8622 42.2674 16.8615 42.5313C16.0174 42.7539 15.0563 42.7021 14.2684 42.3648C13.4813 42.0273 12.8538 41.4515 12.6638 40.7311L8.7585 25.9238C6.93425 26.1142 5.08017 25.7892 3.59577 24.9814C2.70723 24.4744 2.00134 23.7957 1.53054 22.9895C1.05974 22.1833 0.83948 21.282 0.884623 20.3471L1.06944 10.3882C1.07437 10.1069 1.20921 9.82414 1.44737 9.59438C1.68465 9.36478 2.00988 9.20401 2.35874 9.14342C2.70839 9.08229 3.0587 9.12601 3.34141 9.2663C3.6241 9.40651 3.81798 9.63346 3.88721 9.90302L6.46807 19.6885L7.97959 19.2899L6.81257 8.83421C6.78868 8.60247 6.87215 8.3614 7.0505 8.1554C7.22017 7.95177 7.47698 7.79625 7.68583 7.74117C8.0513 7.64477 8.35141 7.65341 8.59944 7.74688C8.85618 7.83812 8.97111 8.02687 9.14293 8.21959L13.2851 17.8906L14.7296 17.5096L12.1488 7.72409C12.0783 7.45703 12.2103 7.14587 12.3054 6.90632C12.5571 6.62546 12.8364 6.41427 13.1673 6.29273C13.499 6.17408 13.7875 6.17396 14.1858 6.23732C14.5058 6.32132 14.7586 6.50351 14.9063 6.74604L19.9658 15.3073ZM45.4612 32.0811C45.6512 32.8014 45.4685 33.5909 44.9503 34.2727C44.4321 34.9545 43.6198 35.474 42.6974 35.7173C41.775 35.9605 40.8121 35.9092 40.025 35.5717C39.238 35.2342 38.6897 34.6374 38.4997 33.9171L36.349 25.7625L34.8871 26.1481C34.1561 26.3409 33.3947 26.4181 32.6586 26.3797C31.9294 26.3322 31.2273 26.1757 30.5977 25.9057C29.9767 25.6334 29.4405 25.2588 28.9439 24.8228C28.604 24.3456 28.3142 23.8115 28.1637 23.2406L26.1154 15.5097C25.5323 12.9815 25.8512 10.2736 27.1055 7.72451C28.3589 5.17206 30.4845 2.89179 33.2235 1.17286C33.5369 0.949358 34.0547 0.760351 34.5173 0.679014C34.9798 0.597665 35.4475 0.606712 35.8741 0.70686C36.3008 0.807009 36.6846 0.991992 36.9763 1.25086C37.2764 1.50676 37.4034 1.84686 37.5752 2.18093L45.4612 32.0811Z" fill="#E76F51"/>
</svg>
