<svg width="37" height="36" viewBox="0 0 37 36" fill="none" xmlns="http://www.w3.org/2000/svg">
<path d="M13.084 1.68317L13.084 1.68318L13.0873 1.68151C14.5349 0.955771 16.1646 0.649442 17.7948 0.778879C18.1794 5.58176 22.1242 9.38276 27.0262 9.72548C27.3882 14.5336 31.3238 18.3426 36.2222 18.714C36.3505 20.2743 36.0333 21.8537 35.2951 23.2586L35.2947 23.2592L32.7564 28.1019L32.7556 28.1034C31.9187 29.7085 30.5729 31.0193 28.9153 31.8381L28.9141 31.8387L23.9198 34.3167C23.9194 34.3169 23.9191 34.3171 23.9188 34.3172C22.2594 35.1362 20.3829 35.4282 18.5394 35.1442L18.5393 35.1442L13.0018 34.2915C11.1579 34.0075 9.4747 33.1703 8.15965 31.8881L8.15922 31.8876L4.2003 28.0335L4.20015 28.0333C2.88612 26.7548 2.02414 25.1079 1.73417 23.3264L1.73409 23.3259L0.857847 17.9661C0.857826 17.966 0.857805 17.9659 0.857784 17.9657C0.567952 16.1755 0.865928 14.3538 1.7122 12.7387L1.71252 12.7381L4.2407 7.90233C4.24082 7.9021 4.24094 7.90187 4.24107 7.90164C5.08754 6.29269 6.43445 4.98043 8.09525 4.15325C8.0955 4.15312 8.09575 4.153 8.096 4.15288L13.084 1.68317ZM9.11602 24.0004C9.11602 25.7023 10.594 27.0829 12.3326 27.0829C14.0694 27.0829 15.5493 25.7026 15.5493 24.0004C15.5493 22.2985 14.0713 20.918 12.3326 20.918C10.594 20.918 9.11602 22.2985 9.11602 24.0004ZM11.5826 12.0681C11.5826 13.77 13.0606 15.1506 14.7993 15.1506C16.536 15.1506 18.0159 13.7703 18.0159 12.0681C18.0159 10.3662 16.5379 8.98565 14.7993 8.98565C13.0606 8.98565 11.5826 10.3662 11.5826 12.0681ZM23.9157 21.6005C23.9157 23.3024 25.3937 24.6829 27.1323 24.6829C28.8691 24.6829 30.349 23.3027 30.349 21.6005C30.349 19.8985 28.871 18.518 27.1323 18.518C25.3937 18.518 23.9157 19.8985 23.9157 21.6005Z" fill="#2A9D8F" stroke="#264653" stroke-width="1.5"/>
</svg>
