<svg width="34" height="40" viewBox="0 0 34 40" fill="none" xmlns="http://www.w3.org/2000/svg">
<path d="M32.4986 30.4624L33.5191 1.48252C33.5269 1.05441 33.3289 0.643585 32.9832 0.413904C32.6355 0.175184 32.1973 0.145701 31.8437 0.344125L7.36977 13.52C10.3604 26.1444 20.3487 32.9115 32.4986 30.4624ZM25.9734 8.82717C27.1863 8.56906 28.3981 9.40135 28.6562 10.614C28.9281 11.8919 28.1595 13.1456 26.9466 13.4038C25.733 13.662 24.5219 12.8296 24.2638 11.6169C23.9309 10.3535 24.6999 9.09817 25.9734 8.82717ZM24.9056 20.0394C26.1192 19.7812 27.3303 20.6136 27.6023 21.8915C27.8742 23.1694 27.0924 24.3578 25.8795 24.6159C24.6666 24.874 23.4548 24.0417 23.1967 22.829C22.8492 21.5005 23.6321 20.3104 24.9056 20.0394ZM16.7536 14.4963C17.9665 14.2382 19.1784 15.0705 19.4364 16.2831C19.7084 17.5611 18.9404 18.8147 17.7275 19.0728C16.5139 19.331 15.3028 18.4986 15.0309 17.2207C14.7592 15.9442 15.5421 14.7541 16.7536 14.4963ZM30.2027 39.4539C31.3362 39.3264 32.2227 38.3796 32.2659 37.1863L32.4178 32.8889C19.4191 35.2381 8.75288 28.0239 5.33919 14.6874L1.66684 16.6629C0.650177 17.211 0.214308 18.4595 0.593834 19.6106C4.80289 32.3533 17.4151 40.8675 30.2027 39.4539Z" fill="#E9C46A"/>
</svg>
