<svg width="19" height="18" viewBox="0 0 19 18" fill="none" xmlns="http://www.w3.org/2000/svg">
<path d="M5.914 0.273599C5.97551 0.272191 6.03238 0.27165 6.09393 0.272032C5.78871 0.841023 5.64166 1.46256 5.65569 2.07542C5.71855 4.82084 8.31935 5.52071 9.40713 5.49581C10.349 5.47424 11.2954 5.12278 12.0405 4.45077C12.2862 5.09389 12.4191 5.77116 12.4348 6.45644L12.5012 9.35233L13.9424 10.6683C14.1596 10.8662 14.4372 10.9535 14.7214 10.947C15.2083 10.9358 15.3115 10.6927 16.0057 10.6768C17.1814 10.6475 18.1288 11.5397 18.1538 12.6326C18.1657 13.1518 17.9666 13.6708 17.5663 14.0658C17.1759 14.4586 16.6627 14.6455 16.1419 14.6574C15.9696 14.6614 15.7966 14.6462 15.6269 14.6129C15.6692 14.7729 15.6929 14.9369 15.6966 15.1005C15.7287 16.5006 14.4654 17.0939 13.6692 17.1121C12.5048 17.1388 11.5468 16.2584 11.5215 15.1542C11.5071 14.5241 11.7555 14.3855 11.7449 13.9208C11.7387 13.6497 11.6348 13.3902 11.4175 13.1924L9.97707 11.8771L6.95488 11.9451C4.75704 11.9954 3.20681 11.1073 1.94688 9.96033C0.77017 8.8862 0.161511 7.46239 0.128573 6.02375C0.0956351 4.5851 0.638327 3.12762 1.76466 2.00143C2.91684 0.8773 4.4093 0.308049 5.914 0.273599Z" fill="#E9C46A"/>
</svg>
