<svg width="60" height="60" viewBox="0 0 41 40" fill="none" xmlns="http://www.w3.org/2000/svg">
<ellipse cx="20.5" cy="20" rx="20.5" ry="20" fill="#2A9D8F"/>
<path d="M20.5 19.0008C24.4453 19.0008 27.6429 16.0903 27.6429 12.5004C27.6429 8.91044 24.4453 6 20.5 6C16.5547 6 13.3571 8.91044 13.3571 12.5004C13.3571 16.0903 16.5547 19.0008 20.5 19.0008ZM23.3292 21.4384H17.6708C12.3309 21.4384 8 25.3793 8 30.2393C8 31.2113 8.86607 32 9.93415 32H31.067C32.135 32.0015 33 31.2144 33 30.2393C33 25.3793 28.6696 21.4384 23.3292 21.4384Z" fill="#264653"/>
</svg>
