<svg width="48" height="48" viewBox="0 0 48 48" fill="none" xmlns="http://www.w3.org/2000/svg">
<path d="M46.7291 19.5762C45.3192 18.6886 43.5222 19.0957 42.7279 20.4911L41.8662 22.0076L35.0315 17.4816C36.2571 13.3374 34.2414 8.55979 30.0985 6.64967L18.2478 1.15506C17.1547 0.649378 15.9549 0.980946 15.3641 2.00061L10.898 9.80654L2.03306 11.7992C0.885932 12.0685 0.167681 13.1584 0.334041 14.3516L2.14394 27.2865C2.77458 31.8005 6.71693 35.0739 11.0719 35.1568L13.4526 43.0607L11.7562 43.4454C10.1902 43.8 9.28571 45.3956 9.71794 47.008C9.80376 47.3357 10.1224 47.5383 10.4408 47.4684L22.9083 44.6177C23.1674 44.5917 23.4023 44.2396 23.3163 43.9121C22.8767 42.3051 21.2523 41.2796 19.6863 41.6341L17.9905 42.0256L15.5685 33.9909C15.8519 33.8282 16.1394 33.6863 16.3854 33.5039C19.3837 31.281 20.6855 27.27 19.0861 23.4135L16.8383 17.9293L21.4326 21.6738C24.563 24.3099 28.8723 24.2463 31.8723 22.0222C32.1186 21.8396 32.3379 21.6058 32.5757 21.3821L39.5528 26.0397L38.6854 27.5485C37.891 28.9439 38.3521 30.7466 39.8102 31.6838C40.0988 31.8612 40.4591 31.772 40.6114 31.493L46.9623 20.392C47.1021 20.1157 47.0137 19.7542 46.7291 19.5762ZM13.3436 18.5658L4.73777 20.5337L3.97579 15.0857L11.2291 13.4249L13.3436 18.5658ZM18.4537 14.7772L14.1491 11.2563L17.8478 4.80214L22.8393 7.11453L18.4537 14.7772Z" fill="#2A9D8F"/>
</svg>
